<svg width="51" height="51" viewBox="0 0 51 51" fill="none" xmlns="http://www.w3.org/2000/svg">
<g clip-path="url(#clip0_11_7)">
<rect x="16.5854" y="4.14633" width="27.7805" height="46.8537" fill="white"/>
<path fill-rule="evenodd" clip-rule="evenodd" d="M27.2407 51H2.81481C1.25978 51 0 49.7394 0 48.185V2.81479C0 1.25997 1.25997 0 2.81481 0H48.1854C49.7398 0 51 1.25997 51 2.81479V48.185C51 49.7396 49.7396 51 48.1854 51H35.1893V31.25H41.8184L42.8111 23.5531H35.1893V18.6391C35.1893 16.4106 35.8081 14.892 39.0036 14.892L43.0794 14.8902V8.00604C42.3745 7.91224 39.9551 7.70267 37.1403 7.70267C31.2639 7.70267 27.2407 11.2896 27.2407 17.8768V23.5531H20.5946V31.25H27.2407V51Z" fill="#4460A0"/>
</g>
<defs>
<clipPath id="clip0_11_7">
<rect width="51" height="51" fill="white"/>
</clipPath>
</defs>
</svg>
