<svg width="579" height="264" viewBox="0 0 579 264" fill="none" xmlns="http://www.w3.org/2000/svg">
<path d="M128.802 67.9094H115.773V80.9383H128.802V67.9094Z" fill="url(#paint0_linear_17_1092)"/>
<path d="M144.462 67.9094H131.434V80.9383H144.462V67.9094Z" fill="url(#paint1_linear_17_1092)"/>
<path d="M128.802 84.5031H115.773V97.532H128.802V84.5031Z" fill="url(#paint2_linear_17_1092)"/>
<path d="M144.462 84.5031H131.434V97.532H144.462V84.5031Z" fill="url(#paint3_linear_17_1092)"/>
<path d="M30.9384 103.771L120.952 38.1594C124.729 35.4008 129.822 35.4857 133.514 38.3291L209.184 96.6408C211.009 98.0413 213.258 98.8052 215.55 98.8052C225.523 98.8052 235.581 76.3548 227.73 70.2435L135.679 0.51566C132.029 -2.32778 121.164 7.39083 117.387 10.107L0.0849609 94.052L30.9384 103.728V103.771Z" fill="#001242"/>
<path d="M102.83 152.321V246.282C102.83 251.163 101.132 255.322 97.7794 258.674C94.4267 262.027 90.2676 263.725 85.3871 263.725C80.5066 263.725 76.5597 262.027 73.1645 258.674C69.8118 255.322 68.1143 251.163 68.1143 246.282V20.2076C68.1143 15.4544 69.8118 11.3802 73.1645 7.9851C76.5173 4.63239 80.5914 2.93481 85.3871 2.93481C90.1827 2.93481 94.4267 4.63239 97.7794 7.9851C101.132 11.3378 102.83 15.412 102.83 20.2076V119.983H157.407V60.4401C157.407 55.6869 159.104 51.6127 162.457 48.2176C165.81 44.8649 169.884 43.1673 174.679 43.1673C179.475 43.1673 183.719 44.8649 187.072 48.2176C190.424 51.5703 192.122 55.6445 192.122 60.4401V194.379C192.122 199.259 190.424 203.418 187.072 206.771C183.719 210.124 179.56 211.821 174.679 211.821C169.799 211.821 165.852 210.124 162.457 206.771C159.104 203.418 157.407 199.259 157.407 194.379V152.321H102.83Z" fill="#001242"/>
<path d="M309.552 184.83H248.652L241.522 201.678C240.206 204.861 238.084 207.323 235.156 209.105C232.228 210.888 229.13 211.779 225.819 211.779C224.249 211.779 222.467 211.482 220.472 210.888C218.477 210.293 216.653 209.317 214.912 207.917C213.172 206.516 211.73 204.734 210.541 202.569C209.353 200.405 208.759 197.689 208.759 194.548C208.759 192.299 209.268 189.965 210.329 187.588L263.124 71.0923C266.434 63.9625 271.909 60.3976 279.59 60.3976C287.272 60.3976 293.001 63.9625 296.057 71.0923L347.833 187.588C348.766 189.838 349.233 192.172 349.233 194.548C349.233 199.429 347.578 203.546 344.268 206.856C340.957 210.166 336.926 211.821 332.172 211.821C328.862 211.821 325.764 210.93 322.836 209.148C319.907 207.365 317.785 204.861 316.47 201.721L309.51 184.872L309.552 184.83ZM261.341 155.08H297.457L279.59 111.622L261.341 155.08Z" fill="#001242"/>
<path d="M406.229 179.737H450.663C455.034 179.737 458.811 181.307 461.994 184.405C465.177 187.503 466.747 191.323 466.747 195.822C466.747 200.32 465.177 204.14 461.994 207.238C458.811 210.336 455.034 211.906 450.663 211.906H388.744C383.99 211.906 379.916 210.209 376.521 206.856C373.168 203.503 371.471 199.429 371.471 194.633V80.3441C371.471 75.5909 373.168 71.5167 376.521 68.1216C379.874 64.7689 383.948 63.0713 388.744 63.0713C393.539 63.0713 397.783 64.7689 401.136 68.1216C404.489 71.4743 406.186 75.5485 406.186 80.3441V179.779L406.229 179.737Z" fill="#001242"/>
<path d="M502.142 165.393C495.436 162.507 489.58 158.56 484.572 153.552C479.564 148.544 475.617 142.688 472.731 135.94C469.845 129.192 468.36 122.02 468.36 114.381C468.36 106.742 469.803 99.6117 472.731 92.8214C475.617 86.0736 479.564 80.1745 484.572 75.2091C489.58 70.2437 495.436 66.2544 502.142 63.3685C508.847 60.4826 516.019 58.9973 523.616 58.9973C531.213 58.9973 538.385 60.4402 545.175 63.3685C551.923 66.2544 557.822 70.2012 562.787 75.2091C567.795 80.2169 571.742 86.0736 574.628 92.8214C577.514 99.5693 578.999 106.742 578.999 114.381C578.999 122.02 577.556 129.192 574.628 135.94C571.742 142.688 567.795 148.587 562.787 153.552C557.78 158.56 551.923 162.507 545.175 165.393C538.427 168.279 531.255 169.764 523.616 169.764C515.977 169.764 508.847 168.321 502.142 165.393ZM495.733 126.136C497.303 129.786 499.468 133.011 502.226 135.77C504.985 138.529 508.21 140.693 511.86 142.263C515.51 143.834 519.457 144.597 523.616 144.597C527.775 144.597 531.764 143.834 535.456 142.263C539.149 140.693 542.417 138.529 545.175 135.77C547.934 133.011 550.098 129.786 551.668 126.136C553.239 122.487 554.002 118.54 554.002 114.381C554.002 110.222 553.239 106.275 551.668 102.625C550.098 98.9751 547.934 95.7497 545.175 92.9912C542.417 90.2326 539.191 88.0258 535.456 86.4131C531.764 84.8004 527.817 83.994 523.616 83.994C519.414 83.994 515.51 84.8004 511.86 86.4131C508.21 88.0258 504.985 90.2326 502.226 92.9912C499.468 95.7497 497.303 98.9751 495.733 102.625C494.163 106.275 493.399 110.222 493.399 114.381C493.399 118.54 494.163 122.487 495.733 126.136Z" fill="url(#paint4_linear_17_1092)"/>
<path d="M0 94.0944L30.9807 103.474C30.9807 103.474 3.64978 119.346 0 94.0944Z" fill="#001242"/>
<path d="M141.967 260.372V259.476C143.05 259.416 143.862 259.296 144.403 259.117C144.977 258.938 145.359 258.579 145.55 258.041C145.741 257.503 145.836 256.696 145.836 255.62V233.38C145.836 232.274 145.741 231.467 145.55 230.959C145.359 230.421 144.977 230.063 144.403 229.883C143.862 229.674 143.05 229.554 141.967 229.524V228.628C142.7 228.658 143.623 228.688 144.738 228.717C145.852 228.747 146.951 228.762 148.034 228.762C149.276 228.762 150.438 228.747 151.521 228.717C152.604 228.688 153.479 228.658 154.148 228.628V229.524C153.065 229.554 152.237 229.674 151.664 229.883C151.123 230.063 150.757 230.421 150.566 230.959C150.374 231.467 150.279 232.274 150.279 233.38V255.62C150.279 256.696 150.374 257.503 150.566 258.041C150.757 258.579 151.123 258.938 151.664 259.117C152.237 259.296 153.065 259.416 154.148 259.476V260.372C153.479 260.313 152.604 260.283 151.521 260.283C150.438 260.253 149.276 260.238 148.034 260.238C146.951 260.238 145.852 260.253 144.738 260.283C143.623 260.283 142.7 260.313 141.967 260.372ZM122 260.372V259.476C123.083 259.416 123.895 259.296 124.436 259.117C125.009 258.938 125.392 258.579 125.583 258.041C125.774 257.503 125.869 256.696 125.869 255.62V233.38C125.869 232.274 125.774 231.467 125.583 230.959C125.392 230.421 125.009 230.063 124.436 229.883C123.895 229.674 123.083 229.554 122 229.524V228.628C122.669 228.658 123.545 228.688 124.627 228.717C125.71 228.747 126.872 228.762 128.114 228.762C129.229 228.762 130.328 228.747 131.41 228.717C132.525 228.688 133.449 228.658 134.181 228.628V229.524C133.098 229.554 132.27 229.674 131.697 229.883C131.156 230.063 130.789 230.421 130.598 230.959C130.407 231.467 130.312 232.274 130.312 233.38V255.62C130.312 256.696 130.407 257.503 130.598 258.041C130.789 258.579 131.156 258.938 131.697 259.117C132.27 259.296 133.098 259.416 134.181 259.476V260.372C133.449 260.313 132.525 260.283 131.41 260.283C130.328 260.253 129.229 260.238 128.114 260.238C126.872 260.238 125.71 260.253 124.627 260.283C123.545 260.283 122.669 260.313 122 260.372ZM128.64 244.859V243.962H147.508V244.859H128.64Z" fill="#001242"/>
<path d="M177.556 228C180.581 228 183.224 228.643 185.485 229.928C187.778 231.213 189.546 233.067 190.788 235.488C192.062 237.879 192.698 240.793 192.698 244.231C192.698 247.579 192.046 250.508 190.74 253.019C189.466 255.53 187.683 257.488 185.39 258.893C183.097 260.298 180.47 261 177.508 261C174.483 261 171.824 260.357 169.531 259.072C167.27 257.787 165.502 255.933 164.228 253.512C162.986 251.091 162.365 248.177 162.365 244.769C162.365 241.421 163.018 238.492 164.324 235.981C165.63 233.47 167.413 231.512 169.674 230.107C171.967 228.702 174.594 228 177.556 228ZM177.365 228.807C175.295 228.807 173.496 229.48 171.967 230.825C170.438 232.17 169.244 234.023 168.384 236.385C167.556 238.746 167.142 241.481 167.142 244.59C167.142 247.758 167.604 250.523 168.528 252.885C169.483 255.216 170.757 257.024 172.349 258.31C173.973 259.565 175.757 260.193 177.699 260.193C179.769 260.193 181.568 259.52 183.097 258.175C184.626 256.83 185.804 254.977 186.632 252.615C187.492 250.224 187.922 247.489 187.922 244.41C187.922 241.212 187.444 238.447 186.489 236.115C185.565 233.784 184.307 231.99 182.715 230.735C181.123 229.45 179.339 228.807 177.365 228.807Z" fill="#001242"/>
<path d="M238.528 228.628V229.524C237.445 229.554 236.617 229.674 236.044 229.883C235.502 230.063 235.136 230.421 234.945 230.959C234.754 231.467 234.658 232.274 234.658 233.38V255.62C234.658 256.696 234.754 257.503 234.945 258.041C235.136 258.579 235.502 258.938 236.044 259.117C236.617 259.296 237.445 259.416 238.528 259.476V260.372C237.795 260.313 236.872 260.283 235.757 260.283C234.674 260.253 233.576 260.238 232.461 260.238C231.219 260.238 230.057 260.253 228.974 260.283C227.891 260.283 227.015 260.313 226.347 260.372V259.476C227.429 259.416 228.241 259.296 228.783 259.117C229.356 258.938 229.738 258.579 229.929 258.041C230.12 257.503 230.216 256.696 230.216 255.62V230.959L230.407 231.094L218.704 260.596H217.939L205.902 231.497V255.171C205.902 256.247 205.997 257.099 206.188 257.727C206.411 258.325 206.825 258.758 207.43 259.027C208.067 259.266 209.007 259.416 210.249 259.476V260.372C209.675 260.313 208.927 260.283 208.003 260.283C207.08 260.253 206.204 260.238 205.376 260.238C204.58 260.238 203.768 260.253 202.94 260.283C202.144 260.283 201.475 260.313 200.934 260.372V259.476C202.016 259.416 202.829 259.266 203.37 259.027C203.943 258.758 204.325 258.325 204.516 257.727C204.707 257.099 204.803 256.247 204.803 255.171V233.38C204.803 232.274 204.707 231.467 204.516 230.959C204.325 230.421 203.943 230.063 203.37 229.883C202.829 229.674 202.016 229.554 200.934 229.524V228.628C201.475 228.658 202.144 228.688 202.94 228.717C203.768 228.747 204.58 228.762 205.376 228.762C206.077 228.762 206.793 228.747 207.526 228.717C208.29 228.688 208.927 228.658 209.436 228.628L220.28 255.44L219.468 255.799L230.216 228.762C230.598 228.762 230.964 228.762 231.314 228.762C231.697 228.762 232.079 228.762 232.461 228.762C233.576 228.762 234.674 228.747 235.757 228.717C236.872 228.688 237.795 228.658 238.528 228.628Z" fill="#001242"/>
<path d="M270.441 228.628C270.314 229.674 270.218 230.69 270.155 231.677C270.123 232.663 270.107 233.41 270.107 233.918C270.107 234.457 270.123 234.98 270.155 235.488C270.187 235.966 270.218 236.37 270.25 236.698H269.152C268.961 234.935 268.69 233.545 268.34 232.529C267.989 231.482 267.384 230.75 266.524 230.332C265.696 229.883 264.438 229.659 262.751 229.659H258.786C257.703 229.659 256.875 229.749 256.302 229.928C255.76 230.077 255.394 230.421 255.203 230.959C255.012 231.467 254.917 232.274 254.917 233.38V255.62C254.917 256.696 255.012 257.503 255.203 258.041C255.394 258.579 255.76 258.938 256.302 259.117C256.875 259.266 257.703 259.341 258.786 259.341H262.273C264.279 259.341 265.792 259.087 266.811 258.579C267.862 258.071 268.61 257.249 269.056 256.113C269.534 254.947 269.884 253.378 270.107 251.405H271.206C271.11 252.212 271.062 253.288 271.062 254.633C271.062 255.201 271.078 256.023 271.11 257.099C271.174 258.145 271.269 259.236 271.397 260.372C269.773 260.313 267.941 260.283 265.903 260.283C263.865 260.253 262.05 260.238 260.458 260.238C259.757 260.238 258.85 260.238 257.735 260.238C256.652 260.238 255.474 260.253 254.2 260.283C252.926 260.283 251.636 260.298 250.331 260.327C249.025 260.327 247.783 260.342 246.605 260.372V259.476C247.688 259.416 248.5 259.296 249.041 259.117C249.614 258.938 249.996 258.579 250.187 258.041C250.379 257.503 250.474 256.696 250.474 255.62V233.38C250.474 232.274 250.379 231.467 250.187 230.959C249.996 230.421 249.614 230.063 249.041 229.883C248.5 229.674 247.688 229.554 246.605 229.524V228.628C247.783 228.658 249.025 228.688 250.331 228.717C251.636 228.717 252.926 228.732 254.2 228.762C255.474 228.762 256.652 228.762 257.735 228.762C258.85 228.762 259.757 228.762 260.458 228.762C261.923 228.762 263.579 228.762 265.426 228.762C267.305 228.732 268.976 228.688 270.441 228.628ZM262.225 243.962C262.225 243.962 262.225 244.111 262.225 244.41C262.225 244.709 262.225 244.859 262.225 244.859H253.484C253.484 244.859 253.484 244.709 253.484 244.41C253.484 244.111 253.484 243.962 253.484 243.962H262.225ZM263.61 238.043C263.483 239.747 263.419 241.048 263.419 241.944C263.451 242.841 263.467 243.663 263.467 244.41C263.467 245.158 263.483 245.98 263.515 246.876C263.547 247.773 263.626 249.073 263.754 250.777H262.655C262.528 249.821 262.368 248.894 262.177 247.997C262.018 247.071 261.636 246.323 261.031 245.755C260.458 245.158 259.47 244.859 258.069 244.859V243.962C259.12 243.962 259.916 243.768 260.458 243.379C261.031 242.961 261.445 242.438 261.7 241.81C261.954 241.182 262.13 240.539 262.225 239.882C262.321 239.194 262.416 238.582 262.512 238.043H263.61Z" fill="#001242"/>
<path d="M307.52 228.404L319.176 256.606C319.653 257.742 320.195 258.504 320.8 258.893C321.405 259.251 321.962 259.446 322.472 259.476V260.372C321.835 260.313 321.055 260.283 320.131 260.283C319.207 260.253 318.284 260.238 317.36 260.238C316.118 260.238 314.956 260.253 313.873 260.283C312.791 260.283 311.915 260.313 311.246 260.372V259.476C312.87 259.416 313.905 259.162 314.351 258.713C314.797 258.235 314.701 257.234 314.064 255.709L305.179 233.425L305.944 232.842L297.632 253.109C297.123 254.304 296.82 255.321 296.724 256.158C296.629 256.965 296.709 257.607 296.963 258.086C297.25 258.564 297.712 258.908 298.349 259.117C299.017 259.326 299.845 259.446 300.833 259.476V260.372C299.941 260.313 299.001 260.283 298.014 260.283C297.059 260.253 296.167 260.238 295.339 260.238C294.543 260.238 293.858 260.253 293.285 260.283C292.744 260.283 292.234 260.313 291.757 260.372V259.476C292.393 259.326 293.046 258.982 293.715 258.444C294.384 257.876 294.989 256.92 295.53 255.575L306.756 228.404C306.883 228.404 307.011 228.404 307.138 228.404C307.265 228.404 307.393 228.404 307.52 228.404ZM313.348 247.459V248.356H299.113L299.591 247.459H313.348Z" fill="#001242"/>
<path d="M338.469 228.135C340.061 228.135 341.271 228.314 342.099 228.673C342.927 229.001 343.659 229.375 344.296 229.793C344.678 230.003 344.981 230.167 345.204 230.287C345.459 230.376 345.697 230.421 345.92 230.421C346.239 230.421 346.462 230.257 346.589 229.928C346.748 229.599 346.876 229.106 346.971 228.448H348.07C348.038 228.957 347.99 229.569 347.927 230.287C347.895 230.974 347.863 231.901 347.831 233.067C347.831 234.202 347.831 235.712 347.831 237.595H346.732C346.637 236.16 346.303 234.785 345.729 233.47C345.156 232.155 344.312 231.079 343.198 230.242C342.115 229.405 340.682 228.986 338.898 228.986C337.211 228.986 335.809 229.465 334.695 230.421C333.612 231.378 333.071 232.633 333.071 234.188C333.071 235.533 333.437 236.668 334.169 237.595C334.902 238.492 335.873 239.314 337.083 240.061C338.325 240.779 339.663 241.556 341.096 242.393C342.752 243.349 344.217 244.306 345.49 245.262C346.796 246.189 347.815 247.22 348.548 248.356C349.312 249.492 349.694 250.867 349.694 252.481C349.694 254.394 349.232 255.978 348.309 257.234C347.385 258.489 346.159 259.431 344.631 260.058C343.102 260.686 341.414 261 339.567 261C337.879 261 336.542 260.821 335.555 260.462C334.567 260.103 333.724 259.73 333.023 259.341C332.322 258.923 331.781 258.713 331.399 258.713C331.08 258.713 330.841 258.878 330.682 259.207C330.555 259.535 330.443 260.029 330.348 260.686H329.249C329.313 260.058 329.345 259.326 329.345 258.489C329.377 257.622 329.392 256.501 329.392 255.126C329.424 253.751 329.44 252.018 329.44 249.925H330.539C330.666 251.719 331.017 253.393 331.59 254.947C332.195 256.501 333.103 257.757 334.313 258.713C335.555 259.64 337.195 260.103 339.233 260.103C340.284 260.103 341.271 259.909 342.194 259.52C343.15 259.102 343.93 258.459 344.535 257.592C345.14 256.696 345.443 255.545 345.443 254.14C345.443 252.914 345.124 251.853 344.487 250.957C343.882 250.03 343.022 249.178 341.908 248.401C340.793 247.594 339.488 246.772 337.991 245.935C336.494 245.068 335.093 244.186 333.787 243.289C332.482 242.393 331.431 241.361 330.634 240.196C329.87 239 329.488 237.565 329.488 235.891C329.488 234.128 329.902 232.678 330.73 231.542C331.59 230.376 332.704 229.524 334.074 228.986C335.443 228.418 336.908 228.135 338.469 228.135Z" fill="#001242"/>
<path d="M368.326 228.135C369.918 228.135 371.128 228.314 371.956 228.673C372.784 229.001 373.517 229.375 374.153 229.793C374.536 230.003 374.838 230.167 375.061 230.287C375.316 230.376 375.555 230.421 375.778 230.421C376.096 230.421 376.319 230.257 376.446 229.928C376.606 229.599 376.733 229.106 376.828 228.448H377.927C377.895 228.957 377.848 229.569 377.784 230.287C377.752 230.974 377.72 231.901 377.688 233.067C377.688 234.202 377.688 235.712 377.688 237.595H376.59C376.494 236.16 376.16 234.785 375.586 233.47C375.013 232.155 374.169 231.079 373.055 230.242C371.972 229.405 370.539 228.986 368.756 228.986C367.068 228.986 365.667 229.465 364.552 230.421C363.469 231.378 362.928 232.633 362.928 234.188C362.928 235.533 363.294 236.668 364.027 237.595C364.759 238.492 365.73 239.314 366.94 240.061C368.182 240.779 369.52 241.556 370.953 242.393C372.609 243.349 374.074 244.306 375.348 245.262C376.653 246.189 377.672 247.22 378.405 248.356C379.169 249.492 379.551 250.867 379.551 252.481C379.551 254.394 379.09 255.978 378.166 257.234C377.242 258.489 376.016 259.431 374.488 260.058C372.959 260.686 371.271 261 369.424 261C367.737 261 366.399 260.821 365.412 260.462C364.425 260.103 363.581 259.73 362.88 259.341C362.179 258.923 361.638 258.713 361.256 258.713C360.937 258.713 360.699 258.878 360.539 259.207C360.412 259.535 360.301 260.029 360.205 260.686H359.106C359.17 260.058 359.202 259.326 359.202 258.489C359.234 257.622 359.25 256.501 359.25 255.126C359.282 253.751 359.297 252.018 359.297 249.925H360.396C360.523 251.719 360.874 253.393 361.447 254.947C362.052 256.501 362.96 257.757 364.17 258.713C365.412 259.64 367.052 260.103 369.09 260.103C370.141 260.103 371.128 259.909 372.052 259.52C373.007 259.102 373.787 258.459 374.392 257.592C374.997 256.696 375.3 255.545 375.3 254.14C375.3 252.914 374.981 251.853 374.345 250.957C373.739 250.03 372.88 249.178 371.765 248.401C370.65 247.594 369.345 246.772 367.848 245.935C366.351 245.068 364.95 244.186 363.644 243.289C362.339 242.393 361.288 241.361 360.492 240.196C359.727 239 359.345 237.565 359.345 235.891C359.345 234.128 359.759 232.678 360.587 231.542C361.447 230.376 362.562 229.524 363.931 228.986C365.3 228.418 366.765 228.135 368.326 228.135Z" fill="#001242"/>
<path d="M400.141 228.628V229.524C399.059 229.554 398.231 229.674 397.657 229.883C397.116 230.063 396.75 230.421 396.559 230.959C396.368 231.467 396.272 232.274 396.272 233.38V255.62C396.272 256.696 396.368 257.503 396.559 258.041C396.75 258.579 397.116 258.938 397.657 259.117C398.231 259.296 399.059 259.416 400.141 259.476V260.372C399.409 260.313 398.485 260.283 397.371 260.283C396.288 260.253 395.189 260.238 394.075 260.238C392.833 260.238 391.67 260.253 390.588 260.283C389.505 260.283 388.629 260.313 387.96 260.372V259.476C389.043 259.416 389.855 259.296 390.397 259.117C390.97 258.938 391.352 258.579 391.543 258.041C391.734 257.503 391.83 256.696 391.83 255.62V233.38C391.83 232.274 391.734 231.467 391.543 230.959C391.352 230.421 390.97 230.063 390.397 229.883C389.855 229.674 389.043 229.554 387.96 229.524V228.628C388.629 228.658 389.505 228.688 390.588 228.717C391.67 228.747 392.833 228.762 394.075 228.762C395.189 228.762 396.288 228.747 397.371 228.717C398.485 228.688 399.409 228.658 400.141 228.628Z" fill="#001242"/>
<path d="M418.43 228.135C420.023 228.135 421.233 228.314 422.061 228.673C422.889 229.001 423.621 229.375 424.258 229.793C424.64 230.003 424.943 230.167 425.166 230.287C425.42 230.376 425.659 230.421 425.882 230.421C426.201 230.421 426.424 230.257 426.551 229.928C426.71 229.599 426.838 229.106 426.933 228.448H428.032C428 228.957 427.952 229.569 427.888 230.287C427.857 230.974 427.825 231.901 427.793 233.067C427.793 234.202 427.793 235.712 427.793 237.595H426.694C426.599 236.16 426.264 234.785 425.691 233.47C425.118 232.155 424.274 231.079 423.159 230.242C422.077 229.405 420.644 228.986 418.86 228.986C417.172 228.986 415.771 229.465 414.657 230.421C413.574 231.378 413.032 232.633 413.032 234.188C413.032 235.533 413.399 236.668 414.131 237.595C414.864 238.492 415.835 239.314 417.045 240.061C418.287 240.779 419.625 241.556 421.058 242.393C422.714 243.349 424.178 244.306 425.452 245.262C426.758 246.189 427.777 247.22 428.509 248.356C429.274 249.492 429.656 250.867 429.656 252.481C429.656 254.394 429.194 255.978 428.271 257.234C427.347 258.489 426.121 259.431 424.592 260.058C423.064 260.686 421.376 261 419.529 261C417.841 261 416.504 260.821 415.516 260.462C414.529 260.103 413.685 259.73 412.985 259.341C412.284 258.923 411.743 258.713 411.361 258.713C411.042 258.713 410.803 258.878 410.644 259.207C410.517 259.535 410.405 260.029 410.31 260.686H409.211C409.275 260.058 409.307 259.326 409.307 258.489C409.338 257.622 409.354 256.501 409.354 255.126C409.386 253.751 409.402 252.018 409.402 249.925H410.501C410.628 251.719 410.978 253.393 411.552 254.947C412.157 256.501 413.064 257.757 414.274 258.713C415.516 259.64 417.156 260.103 419.195 260.103C420.246 260.103 421.233 259.909 422.156 259.52C423.112 259.102 423.892 258.459 424.497 257.592C425.102 256.696 425.405 255.545 425.405 254.14C425.405 252.914 425.086 251.853 424.449 250.957C423.844 250.03 422.984 249.178 421.87 248.401C420.755 247.594 419.449 246.772 417.953 245.935C416.456 245.068 415.055 244.186 413.749 243.289C412.443 242.393 411.392 241.361 410.596 240.196C409.832 239 409.45 237.565 409.45 235.891C409.45 234.128 409.864 232.678 410.692 231.542C411.552 230.376 412.666 229.524 414.036 228.986C415.405 228.418 416.87 228.135 418.43 228.135Z" fill="#001242"/>
<path d="M464.338 228.628C464.21 229.764 464.115 230.87 464.051 231.946C464.019 232.992 464.003 233.799 464.003 234.367C464.003 235.084 464.019 235.757 464.051 236.385C464.083 237.012 464.115 237.565 464.147 238.043H463.048C462.825 235.951 462.523 234.307 462.14 233.111C461.758 231.886 461.089 231.004 460.134 230.466C459.179 229.928 457.698 229.659 455.692 229.659H453.112V255.171C453.112 256.367 453.224 257.264 453.447 257.861C453.701 258.459 454.179 258.863 454.88 259.072C455.58 259.281 456.599 259.416 457.937 259.476V260.372C457.109 260.313 456.058 260.283 454.784 260.283C453.51 260.253 452.22 260.238 450.915 260.238C449.482 260.238 448.128 260.253 446.854 260.283C445.612 260.283 444.609 260.313 443.845 260.372V259.476C445.183 259.416 446.202 259.281 446.902 259.072C447.603 258.863 448.065 258.459 448.287 257.861C448.542 257.264 448.67 256.367 448.67 255.171V229.659H446.09C444.116 229.659 442.635 229.928 441.648 230.466C440.692 231.004 440.024 231.886 439.641 233.111C439.259 234.307 438.957 235.951 438.734 238.043H437.635C437.699 237.565 437.731 237.012 437.731 236.385C437.763 235.757 437.778 235.084 437.778 234.367C437.778 233.799 437.747 232.992 437.683 231.946C437.651 230.87 437.571 229.764 437.444 228.628C438.782 228.658 440.231 228.688 441.791 228.717C443.383 228.747 444.976 228.762 446.568 228.762C448.16 228.762 449.609 228.762 450.915 228.762C452.22 228.762 453.654 228.762 455.214 228.762C456.806 228.762 458.399 228.747 459.991 228.717C461.583 228.688 463.032 228.658 464.338 228.628Z" fill="#001242"/>
<path d="M498.765 228.628V229.524C497.682 229.554 496.854 229.674 496.281 229.883C495.739 230.063 495.373 230.421 495.182 230.959C494.991 231.467 494.895 232.274 494.895 233.38V255.62C494.895 256.696 494.991 257.503 495.182 258.041C495.373 258.579 495.739 258.938 496.281 259.117C496.854 259.266 497.682 259.341 498.765 259.341H502.252C503.748 259.341 504.959 259.192 505.882 258.893C506.837 258.594 507.586 258.13 508.127 257.503C508.7 256.845 509.13 255.978 509.417 254.902C509.704 253.826 509.927 252.511 510.086 250.957H511.184C511.089 251.883 511.041 253.109 511.041 254.633C511.041 255.201 511.057 256.023 511.089 257.099C511.153 258.145 511.248 259.236 511.375 260.372C509.751 260.313 507.92 260.283 505.882 260.283C503.844 260.253 502.029 260.238 500.437 260.238C499.736 260.238 498.828 260.238 497.714 260.238C496.631 260.238 495.453 260.253 494.179 260.283C492.905 260.283 491.615 260.298 490.31 260.327C489.004 260.327 487.762 260.342 486.584 260.372V259.476C487.666 259.416 488.478 259.296 489.02 259.117C489.593 258.938 489.975 258.579 490.166 258.041C490.357 257.503 490.453 256.696 490.453 255.62V233.38C490.453 232.274 490.357 231.467 490.166 230.959C489.975 230.421 489.593 230.063 489.02 229.883C488.478 229.674 487.666 229.554 486.584 229.524V228.628C487.252 228.658 488.128 228.688 489.211 228.717C490.294 228.747 491.456 228.762 492.698 228.762C493.813 228.762 494.911 228.747 495.994 228.717C497.109 228.688 498.032 228.658 498.765 228.628Z" fill="#001242"/>
<path d="M541.641 228.628C541.513 229.764 541.418 230.87 541.354 231.946C541.322 232.992 541.306 233.799 541.306 234.367C541.306 235.084 541.322 235.757 541.354 236.385C541.386 237.012 541.418 237.565 541.449 238.043H540.351C540.128 235.951 539.825 234.307 539.443 233.111C539.061 231.886 538.392 231.004 537.437 230.466C536.482 229.928 535.001 229.659 532.994 229.659H530.415V255.171C530.415 256.367 530.526 257.264 530.749 257.861C531.004 258.459 531.482 258.863 532.182 259.072C532.883 259.281 533.902 259.416 535.24 259.476V260.372C534.412 260.313 533.361 260.283 532.087 260.283C530.813 260.253 529.523 260.238 528.218 260.238C526.785 260.238 525.431 260.253 524.157 260.283C522.915 260.283 521.912 260.313 521.148 260.372V259.476C522.485 259.416 523.504 259.281 524.205 259.072C524.906 258.863 525.367 258.459 525.59 257.861C525.845 257.264 525.973 256.367 525.973 255.171V229.659H523.393C521.419 229.659 519.938 229.928 518.951 230.466C517.995 231.004 517.326 231.886 516.944 233.111C516.562 234.307 516.26 235.951 516.037 238.043H514.938C515.002 237.565 515.034 237.012 515.034 236.385C515.065 235.757 515.081 235.084 515.081 234.367C515.081 233.799 515.049 232.992 514.986 231.946C514.954 230.87 514.874 229.764 514.747 228.628C516.084 228.658 517.533 228.688 519.094 228.717C520.686 228.747 522.278 228.762 523.871 228.762C525.463 228.762 526.912 228.762 528.218 228.762C529.523 228.762 530.956 228.762 532.517 228.762C534.109 228.762 535.701 228.747 537.294 228.717C538.886 228.688 540.335 228.658 541.641 228.628Z" fill="#001242"/>
<path d="M562.138 228.628C567.838 228.628 572.074 229.973 574.844 232.663C577.615 235.323 579 239.149 579 244.141C579 247.399 578.315 250.254 576.946 252.705C575.608 255.126 573.65 257.01 571.07 258.355C568.491 259.7 565.37 260.372 561.708 260.372C561.23 260.372 560.593 260.357 559.797 260.327C559.001 260.298 558.173 260.283 557.313 260.283C556.485 260.253 555.721 260.238 555.02 260.238C553.906 260.238 552.807 260.253 551.724 260.283C550.641 260.283 549.766 260.313 549.097 260.372V259.476C550.18 259.416 550.992 259.296 551.533 259.117C552.106 258.938 552.489 258.579 552.68 258.041C552.871 257.503 552.966 256.696 552.966 255.62V233.38C552.966 232.274 552.871 231.467 552.68 230.959C552.489 230.421 552.106 230.063 551.533 229.883C550.992 229.674 550.18 229.554 549.097 229.524V228.628C549.766 228.658 550.641 228.702 551.724 228.762C552.807 228.792 553.874 228.792 554.925 228.762C556.039 228.732 557.297 228.702 558.698 228.673C560.1 228.643 561.246 228.628 562.138 228.628ZM560.943 229.435C559.479 229.435 558.523 229.689 558.077 230.197C557.632 230.705 557.409 231.736 557.409 233.291V255.709C557.409 257.264 557.632 258.295 558.077 258.803C558.555 259.311 559.526 259.565 560.991 259.565C564.462 259.565 567.153 258.982 569.064 257.817C570.975 256.621 572.312 254.887 573.077 252.615C573.841 250.344 574.223 247.579 574.223 244.321C574.223 240.973 573.793 238.208 572.933 236.026C572.105 233.814 570.72 232.17 568.778 231.094C566.867 229.988 564.255 229.435 560.943 229.435Z" fill="#001242"/>
<defs>
<linearGradient id="paint0_linear_17_1092" x1="116.33" y1="72.3475" x2="127.442" y2="80.379" gradientUnits="userSpaceOnUse">
<stop stop-color="#F7D55A"/>
<stop offset="1" stop-color="#F1483D"/>
</linearGradient>
<linearGradient id="paint1_linear_17_1092" x1="131.991" y1="72.3475" x2="143.102" y2="80.379" gradientUnits="userSpaceOnUse">
<stop stop-color="#F7D55A"/>
<stop offset="1" stop-color="#F1483D"/>
</linearGradient>
<linearGradient id="paint2_linear_17_1092" x1="116.33" y1="88.9412" x2="127.442" y2="96.9727" gradientUnits="userSpaceOnUse">
<stop stop-color="#F7D55A"/>
<stop offset="1" stop-color="#F1483D"/>
</linearGradient>
<linearGradient id="paint3_linear_17_1092" x1="131.991" y1="88.9412" x2="143.102" y2="96.9727" gradientUnits="userSpaceOnUse">
<stop stop-color="#F7D55A"/>
<stop offset="1" stop-color="#F1483D"/>
</linearGradient>
<linearGradient id="paint4_linear_17_1092" x1="468.402" y1="114.423" x2="578.999" y2="114.423" gradientUnits="userSpaceOnUse">
<stop stop-color="#F03939"/>
<stop offset="1" stop-color="#F7E15C"/>
</linearGradient>
</defs>
</svg>
